<svg xmlns="http://www.w3.org/2000/svg" viewBox="0 0 160 160" width="160" height="160"><defs><linearGradient id="gf" x1="0" y1="0" x2="1" y2="1"><stop offset="0" stop-color="#0b3d91"/><stop offset="1" stop-color="#00b4d8"/></linearGradient></defs><rect x="20" y="20" width="120" height="120" rx="30" fill="url(#gf)"/><rect x="33.0" y="33.0" width="26" height="26" rx="4" fill="#fff"/><rect x="36.64" y="36.64" width="18.72" height="18.72" rx="2.5" fill="#0b3d91"/><rect x="40.8" y="40.8" width="10.4" height="10.4" rx="1.5" fill="#fff"/><rect x="101.0" y="33.0" width="26" height="26" rx="4" fill="#fff"/><rect x="104.64" y="36.64" width="18.72" height="18.72" rx="2.5" fill="#0b3d91"/><rect x="108.8" y="40.8" width="10.4" height="10.4" rx="1.5" fill="#fff"/><rect x="33.0" y="101.0" width="26" height="26" rx="4" fill="#fff"/><rect x="36.64" y="104.64" width="18.72" height="18.72" rx="2.5" fill="#0b3d91"/><rect x="40.8" y="108.8" width="10.4" height="10.4" rx="1.5" fill="#fff"/><rect x="67" y="35" width="10" height="10" rx="1.5" fill="#fff"/><rect x="91" y="35" width="10" height="10" rx="1.5" fill="#fff"/><rect x="35" y="67" width="10" height="10" rx="1.5" fill="#fff"/><rect x="115" y="67" width="10" height="10" rx="1.5" fill="#fff"/><rect x="115" y="91" width="10" height="10" rx="1.5" fill="#fff"/><rect x="115" y="115" width="10" height="10" rx="1.5" fill="#fff"/><rect x="91" y="115" width="10" height="10" rx="1.5" fill="#fff"/><rect x="67" y="115" width="10" height="10" rx="1.5" fill="#fff"/><rect x="107" y="107" width="10" height="10" rx="1.5" fill="#fff"/><rect x="35" y="83" width="10" height="10" rx="1.5" fill="#fff"/><rect x="60" y="60" width="40" height="40" rx="7" fill="#fff"/><path d="M86 63 L66 84 L78 84 L72 99 L96 74 L82 74 Z" fill="#0b3d91"/></svg>