<svg xmlns="http://www.w3.org/2000/svg" viewBox="0 0 160 160" width="160" height="160"><rect x="20" y="20" width="120" height="120" rx="26" fill="#fff" stroke="#2b2b2b" stroke-width="5"/><rect x="33.0" y="33.0" width="26" height="26" rx="4" fill="#0e1b2c"/><rect x="36.64" y="36.64" width="18.72" height="18.72" rx="2.5" fill="#fff"/><rect x="40.8" y="40.8" width="10.4" height="10.4" rx="1.5" fill="#0e1b2c"/><rect x="101.0" y="33.0" width="26" height="26" rx="4" fill="#0e1b2c"/><rect x="104.64" y="36.64" width="18.72" height="18.72" rx="2.5" fill="#fff"/><rect x="108.8" y="40.8" width="10.4" height="10.4" rx="1.5" fill="#0e1b2c"/><rect x="33.0" y="101.0" width="26" height="26" rx="4" fill="#0e1b2c"/><rect x="36.64" y="104.64" width="18.72" height="18.72" rx="2.5" fill="#fff"/><rect x="40.8" y="108.8" width="10.4" height="10.4" rx="1.5" fill="#0e1b2c"/><rect x="67" y="35" width="10" height="10" rx="1.5" fill="#0e1b2c"/><rect x="91" y="35" width="10" height="10" rx="1.5" fill="#0e1b2c"/><rect x="35" y="67" width="10" height="10" rx="1.5" fill="#0e1b2c"/><rect x="115" y="67" width="10" height="10" rx="1.5" fill="#0e1b2c"/><rect x="115" y="91" width="10" height="10" rx="1.5" fill="#0e1b2c"/><rect x="115" y="115" width="10" height="10" rx="1.5" fill="#0e1b2c"/><rect x="91" y="115" width="10" height="10" rx="1.5" fill="#0e1b2c"/><rect x="67" y="115" width="10" height="10" rx="1.5" fill="#0e1b2c"/><rect x="107" y="107" width="10" height="10" rx="1.5" fill="#0e1b2c"/><rect x="35" y="83" width="10" height="10" rx="1.5" fill="#0e1b2c"/><rect x="58" y="58" width="44" height="44" rx="8" fill="#fff"/><path d="M80 64 A16 16 0 1 1 68 70" fill="none" stroke="#0e1b2c" stroke-width="5.5" stroke-linecap="round"/><line x1="80" y1="60" x2="80" y2="80" stroke="#0e1b2c" stroke-width="5.5" stroke-linecap="round"/></svg>