<svg xmlns="http://www.w3.org/2000/svg" viewBox="0 0 560 170" width="560" height="170"><g transform="translate(20,25) scale(1.0)"><defs><linearGradient id="gf" x1="0" y1="0" x2="1" y2="1"><stop offset="0" stop-color="#0b3d91"/><stop offset="1" stop-color="#00b4d8"/></linearGradient></defs><rect x="0" y="0" width="120" height="120" rx="30" fill="url(#gf)"/><rect x="13.0" y="13.0" width="26" height="26" rx="4" fill="#fff"/><rect x="16.64" y="16.64" width="18.72" height="18.72" rx="2.5" fill="#0b3d91"/><rect x="20.8" y="20.8" width="10.4" height="10.4" rx="1.5" fill="#fff"/><rect x="81.0" y="13.0" width="26" height="26" rx="4" fill="#fff"/><rect x="84.64" y="16.64" width="18.72" height="18.72" rx="2.5" fill="#0b3d91"/><rect x="88.8" y="20.8" width="10.4" height="10.4" rx="1.5" fill="#fff"/><rect x="13.0" y="81.0" width="26" height="26" rx="4" fill="#fff"/><rect x="16.64" y="84.64" width="18.72" height="18.72" rx="2.5" fill="#0b3d91"/><rect x="20.8" y="88.8" width="10.4" height="10.4" rx="1.5" fill="#fff"/><rect x="47" y="15" width="10" height="10" rx="1.5" fill="#fff"/><rect x="71" y="15" width="10" height="10" rx="1.5" fill="#fff"/><rect x="15" y="47" width="10" height="10" rx="1.5" fill="#fff"/><rect x="95" y="47" width="10" height="10" rx="1.5" fill="#fff"/><rect x="95" y="71" width="10" height="10" rx="1.5" fill="#fff"/><rect x="95" y="95" width="10" height="10" rx="1.5" fill="#fff"/><rect x="71" y="95" width="10" height="10" rx="1.5" fill="#fff"/><rect x="47" y="95" width="10" height="10" rx="1.5" fill="#fff"/><rect x="87" y="87" width="10" height="10" rx="1.5" fill="#fff"/><rect x="15" y="63" width="10" height="10" rx="1.5" fill="#fff"/><rect x="40" y="40" width="40" height="40" rx="7" fill="#fff"/><path d="M66 43 L46 64 L58 64 L52 79 L76 54 L62 54 Z" fill="#0b3d91"/></g><text x="165" y="103" font-family="Segoe UI, Arial, sans-serif" font-size="52" fill="#0e1b2c"><tspan font-weight="400">Termo</tspan><tspan font-weight="800" fill="#009ee3">Pago</tspan></text><text x="167" y="130" font-family="Segoe UI, Arial, sans-serif" font-size="16" letter-spacing="3" fill="#5a6b7b">PAGOS QR PARA AUTOSERVICIO</text></svg>